<?xml version="1.0" standalone="no"?>
<!DOCTYPE svg PUBLIC "-//W3C//DTD SVG 20010904//EN"
 "http://www.w3.org/TR/2001/REC-SVG-20010904/DTD/svg10.dtd">
<svg version="1.0" xmlns="http://www.w3.org/2000/svg"
 width="256.000000pt" height="256.000000pt" viewBox="0 0 256.000000 256.000000"
 preserveAspectRatio="xMidYMid meet">

<g transform="translate(0.000000,256.000000) scale(0.100000,-0.100000)"
fill="#000000" stroke="none">
<path d="M429 2411 c-21 -21 -29 -39 -29 -64 0 -31 -4 -35 -40 -47 -37 -12
-42 -12 -64 9 -26 24 -70 30 -103 13 -11 -6 -34 -27 -52 -47 -38 -44 -42 -97
-9 -132 20 -21 20 -26 8 -63 -12 -36 -16 -40 -47 -40 -25 0 -43 -8 -64 -29
-43 -43 -43 -139 0 -182 21 -21 39 -29 64 -29 31 0 35 -4 47 -40 12 -37 12
-42 -8 -63 -33 -35 -29 -88 9 -132 18 -20 41 -41 52 -47 33 -17 77 -11 103 13
22 21 27 21 64 9 36 -12 40 -16 40 -47 0 -25 8 -43 29 -64 26 -26 36 -29 91
-29 55 0 65 3 91 29 21 21 29 39 29 64 0 31 4 35 40 47 37 12 42 12 63 -7 21
-20 42 -27 79 -24 21 1 84 55 100 84 17 33 11 77 -13 103 -21 22 -21 27 -9 64
12 36 16 40 47 40 25 0 43 8 64 29 26 26 29 36 29 91 0 55 -3 65 -29 91 -21
21 -39 29 -64 29 -31 0 -35 4 -47 40 -12 37 -12 42 9 64 24 26 30 70 13 103
-16 29 -79 83 -100 84 -37 3 -58 -4 -79 -24 -21 -19 -26 -19 -63 -7 -36 12
-40 16 -40 47 0 25 -8 43 -29 64 -26 26 -36 29 -91 29 -55 0 -65 -3 -91 -29z
m169 -297 c174 -72 174 -316 0 -388 -167 -70 -342 105 -272 272 44 107 168
160 272 116z"/>
<path d="M1949 2411 c-21 -21 -29 -39 -29 -64 0 -31 -4 -35 -40 -47 -37 -12
-42 -12 -63 8 -16 15 -36 22 -61 22 -32 0 -46 -7 -82 -44 -37 -36 -44 -50 -44
-82 0 -25 7 -45 22 -61 20 -21 20 -26 8 -63 -12 -36 -16 -40 -47 -40 -25 0
-43 -8 -64 -29 -26 -26 -29 -36 -29 -91 0 -55 3 -65 29 -91 21 -21 39 -29 64
-29 31 0 35 -4 47 -40 12 -37 12 -42 -8 -63 -15 -16 -22 -36 -22 -61 0 -32 7
-46 44 -82 36 -36 50 -44 81 -44 21 0 49 9 66 21 26 18 33 19 64 8 31 -11 35
-17 35 -47 0 -24 8 -42 29 -63 26 -26 36 -29 91 -29 55 0 65 3 91 29 21 21 29
39 29 64 0 31 4 35 40 47 37 12 42 12 63 -8 16 -15 36 -22 61 -22 32 0 46 7
82 44 37 36 44 50 44 82 0 25 -7 45 -22 61 -20 21 -20 26 -8 63 12 36 16 40
47 40 25 0 43 8 64 29 26 26 29 36 29 91 0 55 -3 65 -29 91 -21 21 -39 29 -64
29 -31 0 -35 4 -47 40 -12 37 -12 42 8 63 34 36 29 88 -10 133 -55 63 -113 74
-158 32 -20 -19 -25 -19 -61 -8 -35 12 -39 17 -39 47 0 25 -8 43 -29 64 -26
26 -36 29 -91 29 -55 0 -65 -3 -91 -29z m179 -300 c166 -85 160 -315 -10 -385
-135 -57 -287 47 -288 197 0 77 48 150 125 190 42 23 127 21 173 -2z"/>
<path d="M1116 1856 c-3 -13 -9 -31 -12 -40 -5 -14 13 -16 176 -16 163 0 181
2 176 16 -3 9 -9 27 -12 40 l-6 24 -158 0 -158 0 -6 -24z"/>
<path d="M2 1045 l3 -695 33 -32 32 -33 525 -3 525 -3 0 -39 0 -39 -101 -3
c-84 -3 -104 -6 -113 -20 -8 -13 -8 -23 0 -35 10 -17 39 -18 374 -18 335 0
364 1 374 18 8 12 8 22 0 35 -9 14 -29 17 -113 20 l-101 3 0 39 0 39 525 3
525 3 32 33 33 32 3 696 c2 635 1 696 -14 690 -8 -3 -17 -6 -18 -6 -2 0 -1
-33 1 -72 5 -66 3 -77 -21 -111 l-26 -38 0 -562 c0 -425 -3 -566 -12 -575 -17
-17 -2359 -17 -2376 0 -9 9 -12 150 -12 575 l0 562 -26 38 c-23 34 -26 45 -22
110 5 69 0 83 -28 83 -2 0 -3 -313 -2 -695z m1358 -805 l0 -40 -80 0 -80 0 0
40 0 40 80 0 80 0 0 -40z"/>
<path d="M908 1397 c-226 -115 -360 -189 -364 -200 -7 -23 10 -44 60 -69 l39
-20 -46 -27 c-74 -41 -73 -72 7 -113 l39 -20 -46 -27 c-48 -26 -62 -47 -52
-72 5 -13 698 -380 730 -387 15 -3 697 349 728 376 30 26 20 50 -34 81 l-52
29 40 20 c79 41 80 74 6 115 l-47 25 47 23 c47 23 62 44 52 70 -6 15 -713 379
-736 379 -8 0 -175 -83 -371 -183z m683 -59 c165 -83 298 -152 297 -154 -16
-15 -603 -314 -613 -312 -15 4 -605 311 -602 314 12 11 596 304 606 304 7 0
148 -68 312 -152z m-578 -584 c142 -74 263 -134 268 -134 6 0 132 63 280 141
257 135 271 141 299 129 17 -7 30 -15 30 -19 0 -8 -594 -321 -609 -321 -9 0
-600 306 -609 315 -8 8 54 34 68 29 8 -3 131 -66 273 -140z"/>
<path d="M355 771 c-45 -20 -70 -60 -70 -112 0 -42 5 -53 33 -81 28 -28 39
-33 82 -33 43 0 54 5 82 33 28 28 33 39 33 82 0 42 -5 54 -31 81 -33 33 -92
46 -129 30z"/>
<path d="M2115 770 c-44 -18 -70 -59 -70 -111 0 -42 5 -53 33 -81 28 -28 39
-33 82 -33 43 0 54 5 82 33 29 28 33 39 33 83 0 46 -4 54 -37 85 -39 35 -78
43 -123 24z"/>
</g>
</svg>
